<?xml version="1.0" encoding="utf-8"?>
<!-- Generator: Adobe Illustrator 12.0.1, SVG Export Plug-In . SVG Version: 6.00 Build 51448)  -->
<!DOCTYPE svg PUBLIC "-//W3C//DTD SVG 1.1//EN" "http://www.w3.org/Graphics/SVG/1.1/DTD/svg11.dtd" [
	<!ENTITY ns_svg "http://www.w3.org/2000/svg">
	<!ENTITY ns_xlink "http://www.w3.org/1999/xlink">
]>
<svg  version="1.1" id="Layer_1" xmlns="&ns_svg;" xmlns:xlink="&ns_xlink;" width="451.918" height="163.818"
	 viewBox="0 0 451.918 163.818" overflow="visible" enable-background="new 0 0 451.918 163.818" xml:space="preserve">
<path fill-rule="evenodd" clip-rule="evenodd" fill="#FFFFFF" d="M0.438,77.974v85.844l334.996-2.095l-34.545-23.379
	c0,0-12.216-28.267-10.819-33.5c1.397-5.234,13.26-21.287,29.661-22.683c16.403-1.395,17.798-4.188,17.798-4.188
	s4.534-1.744,6.63,0.35c2.095,2.093-1.049,6.281,0.697,6.281c1.747,0,8.725,1.047,8.725,1.047s-6.631,5.933-4.537,6.281
	c2.095,0.349,9.771,1.045,14.308-0.351c4.537-1.395,4.888,5.932,8.026,4.537c3.14-1.396,4.884-7.676,7.677-7.676
	c2.792,0,6.281,0.697,6.281,0.697l4.885-1.744l0.697,6.63l8.725,1.046l-4.188,6.63l10.12,2.443l5.582,3.839l7.33-3.839l10.816,1.396
	l-0.697-9.771c0,0,4.883-4.535,6.63-3.14c1.746,1.396,5.583,3.14,5.583,3.14l1.397-5.234l-13.262-5.932l-0.697-5.933l5.932-4.536
	l10.119-0.349l4.188,3.838l2.094-3.489c0,0-2.792-4.537-4.188-4.537s-7.328-4.537-7.328-4.537l-10.816-5.583v-6.629l-11.516-2.443
	l-13.261-2.792c0,0-9.073-2.093-10.469-1.046c-1.395,1.046-13.608,2.442-13.608,2.442s-6.631-1.048-6.631-2.094
	c0-1.046-2.79-4.884-0.697-6.281c2.094-1.396,3.838-2.094,3.838-2.094l5.101,1.881l0.832-2.229l-7.677-3.839l-4.537-4.885
	l7.329-1.396l-0.697-2.791l-11.518-3.839c0,0-13.956-7.678-33.499-11.865c-19.542-4.187-18.495-4.885-18.495-4.885
	s-6.282-2.443-17.797-2.792s-20.938-0.697-20.938-0.697l-22.681,3.141c0,0-33.5,1.746-53.391,8.375
	c-19.891,6.629-59.322,22.682-59.322,22.682l-15.005,8.723c0,0-10.818,2.443-14.656,5.234c-3.838,2.792-26.521,17.448-26.521,17.448
	L56.619,77.974l-32.103,3.142L0.438,77.974z"/>
<g>
	<path fill-rule="evenodd" clip-rule="evenodd" fill="#007CC2" d="M0,76.47c3.788,1.461,8.407-0.045,12.337,0.436
		c3.569,0.436,6.565,2.624,10.159,3.04c10.343,1.194,20.626-0.302,30.706-2.595c16.923-3.851,36.474-14.289,49.265-26.075
		c6.027-5.554,17.182-9.344,25.262-10.853c6.901-5.432,15.542-8.343,23.555-11.673c17.769-7.387,36.149-14.12,54.745-19.501
		c16.583-4.798,32.125-6.713,49.23-6.646c8.75,0.035,17.353-2.977,26.799-2.564c10.495,0.459,23.235,0.229,33.028,3.963
		c7.262,2.77,15.137,3.453,22.602,5.496c5.745,1.572,13.464,3.025,18.253,5.779c6.231,3.585,13.703,4.209,19.96,7.744
		c12.134,6.851-3.998,5.703-4.322,7.413c2.729,4.299,9.564,3.567,12.764,7.385c6.043,7.209-9.893,2.371-9.136,2.171
		c-3.302,0.309-1.601,3.979-0.624,5.428c2.647,3.932,9.988,1.383,13.689,0.398c9.258-2.464,16.696,2.702,25.886,3.403
		c3.907,0.298,8.023,0.097,11.868,0.996c7.347,1.719,0.781,5.464,4.336,9.319c3.553,1.424,9.146,1.85,11.554,5.248
		c2.242,3.164,4.55,2.438,7.489,5.525c3.88,4.08,3.585,10.965-3.137,11.244c-7.789,0.324-0.9-4.58-5.743-6.816
		c-4.017-0.437-9.306,0.083-10.715,4.649c-2.677,8.671,12.497,4.435,14.341,12.291c2.838,12.077-14.831-2.039-15.24,6.08
		c6.641,2.252,4.517,8.887-1.261,10.463c-3.07,0.837-6.136-0.212-8.174-2.647c-2.749,2.176-6.593,2.919-10,2.966
		c-3.819,0.05-5.561,0.231-6.136-3.201c-0.391-2.33-7.819-0.939-9.934-1.818c-7.871-3.264,5.166-5.25,5.023-7.501
		c-3.406-0.392-14.859-0.111-9.434-6.514c-3.701,0.389-7.14,2.612-10.886,0.868c0.551,4.397-3.518,6.161-7.103,6.87
		c-6.815,1.347-5.106-5.788-10.055-4.365c-4.615,1.326-9.429,3.499-13.987,0.262c-8.075-5.73,4.715-3.238,3.564-7.109
		c-3.079,0.249-6.055-0.102-8.53-2.061c-3.299-2.611,1.143-4.027-0.178-4.889c-5.405,0.513-10.233,3.214-15.579,3.956
		c-6.808,0.944-8.907-1.109-15.25,2.883c-4.53,2.852-7.549,6.264-6.96,11.893c0.729,6.94-6.078,9.979-5.559,16.826
		c1.514,20.045,27.909,43.281,45.524,48.699c-91.202,0-182.403,0-273.604,0c2.488-0.947,0.131-4.466,2.903-5.209
		c-0.98-0.997-2.19-1.289-3.63-0.871c4.503-2.004,9.333,7.847,9.435-0.868c3.433-1.3,5.853-0.43,7.259,2.606
		c6.307-5.456-16.962-4.438-18.504-4.27c-4.615,0.507-9.872,0.115-14.156-1.811c-0.361-6.561,11.097-7.295,9.437-2.606
		c8.883-3.151-11.244-9.976-9.437-3.473c-1.083-12.799-20.125-2.405-25.399-1.739c-5.228,0.656-9.584-0.725-14.515-2.173
		c0.783-7.154-5.654-2.677-5.806-3.907c1.198-2.087,5.663-0.233,6.532-2.606c-1.457-1.99-5.843-3.467-7.985-1.739
		c0.035,0.138,9.3-3.872,7.985,3.912c6.562,3.198,2.649-6.523,2.903-7.385c7.657-2.274,8.954,0.862,10.159,6.079
		c5.211,0.956,3.288-4.127,4.354-6.948c6.607-0.568,3.869,2.667,7.068-3.155c1.849-3.362,11.89-0.149,8.899,4.024
		c7.058-3.593-6.365-5.321-5.806-9.121c0.812,0.506,1.295,1.231,1.451,2.173c2.734-0.018,0.242-3.073,3.629-2.606
		c-4.208,5.744,12.813,8.559,8.708,14.333c3.618-0.349,3.21-3.643,1.452-5.647c1.753-1.868,9.662-2.378,10.886,0.436
		c0.775,1.625-2.725,0.682-2.177,2.171c3.026,3.64,3.832-3.453,5.806-3.91c-0.907-1.135-2.116-1.568-3.629-1.303
		c1.532-0.645,2.983-0.499,4.354,0.436c-0.905,1.461-1.389,3.057-1.451,4.777c3.056-0.031,4.868-2.309,6.98,0.74
		c2.314,3.338,2.592,6.616-2.624,6.642c0.403,5.029,7.046-1.363,7.983-1.734c-3.205-4.192-3.998-10.295,2.176-10.86
		c0.111,1.103-0.13,2.116-0.725,3.042c3.927,1.147,4.867-5.225,10.021-4.261c5.732,1.071,2.001,3.983,4.492,5.564
		c3.238-0.215,4.265-3.256,2.109-5.339c-3.304-3.193-8.857-3.771-13.179-4.081c-6.302-0.455-6.708,0.835-8.524-5.351
		c-1.12-0.734-8.674-1.693-6.532-4.341c3.339-0.762,5.281,0.616,7.983,2.173c2.816-2.213-3.09-2.956-0.727-5.212
		c-4.299,1.348-8.78-0.661-13.062,0.434c4.745-1.338,14.69-4.718,13.789-8.687c1.64,0.596,3.333,0.885,5.08,0.867
		c-0.908,0.47-1.875,0.616-2.902,0.438c-1.288,4.068,4.488,3.654,6.53,3.474c-3.814,1.039,3.173,4.219,6.532,2.606
		c2.54,5.796-3.042,2.729-5.806,3.907c5.27,7.21,14.22-6.278,20.321-0.868c0.775,2.571-3.519,1.508-4.354,1.302
		c0.806,2.71,8.531,1.143,7.981-1.302c4.434,4.964-0.748,8.315-5.805,7.382c0.078,2.623,6.21,1.861,7.616,1.896
		c7.669,0.185,3.452,6.745-1.811,5.489c-1.109,4.289,13.197-3.943,13.064-3.911c-3.38,5.693-14.13,14.837-21.046,10.858
		c0.807,3.339,8.16,2.219,10.16,1.305c-2.773,4.109,5.03,5.052-2.917,6.836c-2.161,0.485-7.616,1.062-7.836,0.078
		c0.923,4.131,13.45,2.716,16.559,2.641c4.519,4.865-6.543,6.794-9.433,5.212c-3.318,2.655,8.205,2.283,7.553,2.421
		c3.949-0.826,6.873-3.603,9.139-6.766c-2.06-0.646-3.511-1.948-4.354-3.907c1.858-1.011,3.794-1.155,5.806-0.435
		c0.882,1.965-2.005,1.657-1.451,3.475c5.04,0.014,7.266-6.511,0.724-6.515c4.269-1.828,21.374-2.324,14.516,5.644
		c3.204,0.623,9.88-5.775,5.081-6.948c0.881-0.645,18.485-5.731,13.064-8.252c4.126-1.434,2.895,4.04,0,4.344
		c6.356,4.77,0.41,2.402,0.724,6.515c3.817,0.716,5.89-2.891,7.983-5.213c-2.142,4.32,1.097,7.776-5.079,9.555
		c4.422,1.753,7.444-4.126,11.117,0.731c2.321,3.069-2.063,6.405-5.312,6.652c6.441,3.919,9.202-5.243,15.24-5.212
		c3.502,0.019,5.726,1.887,7.347,4.791c3.102,5.556-1.007,1.012-1.542,5.2c5.607,2.501,6.497-5.23,3.638-8.258
		c-1.582-1.311-2.794-2.903-3.638-4.773c-1.491,0.34-2.996,0.559-4.516,0.656c1.234,0.604,5.528-3.503,5.243-4.997
		c3.781-0.154,14.271,1.451,10.159,7.815c4.41-0.63,4.785-6.143,1.367-7.965c-9.6-5.114,4.301-4.731,0.811-0.719
		c5.771,0.246-0.35-4.844,4.784-5.828c2.266-0.382,4.508-0.273,6.726,0.328c4.278,1.251,0.222,4.486,3.005,5.5
		c4.449-2.477,0.118-5.889-2.328-7.228c-5.4-2.953-11.91,0.057-17.268,2.015c4.942-0.668,7.034-6.157,0-6.079
		c7.032-0.868,4.075-5.646-0.727-6.952c-5.539-0.317-7.951,4.135-13.692,3.329c-3.694-0.517-13.757-2.064-15.022-5.456
		c-1.082-2.896-0.168-5.785-0.315-8.731c1.368,0.428,6.093-1.899,5.944-0.895c-0.372,0.731-0.902,1.32-1.589,1.765
		c-0.088,0.014,5.904,0.601,5.17-0.353c-1.159-0.315-1.431-0.776-0.816-1.386c3.077-0.744,0.881,1.049,2.904,1.306
		c0.434,1.748-3.039,1.194-3.629,2.169c1.107,2.463,6.139,1.241,5.806-1.301c1.742,2.643,7.329,6.079-0.725,6.079
		c3.684,2.277,5.615,0.634,8.198-2.009c3.585-3.674,12.565-1.53,7.767,1.575c14.248-0.067-3.39-10.516,10.886-10.425
		c-1.127,1.889-7.473,0.735-5.806,4.344c5.176-1.736,9.473,0.575,14.515,1.303c0.901,3.895-4.511,6.454-4.354,6.95
		c5.608,1.828,12.129-7.465,16.691-2.605c-1.342-0.77-2.792-1.062-4.354-0.872c0.927,1.102,2.137,1.535,3.63,1.306
		c1.811,3.903-1.206,5.547-3.63,7.819c4.888,1.492,7.231-2.354,11.613-3.041c7.479,0.79,1.288,5.857,0.725,7.381
		c8.109,1.822,5.116-7.23,12.76-6.621c9.319,0.741,3.656,2.815,6.109,6.621c12.36,0.454-2.659-10.267-7.983-10.858
		c-0.797-1.991,2.475-1.305,2.178-3.04c-1.191-0.283-5.733,1.441-6.532,0.871c1.051-5.261,9.245,0.862,10.16,2.603
		c4.453,0.717,2.945-4.117-0.726-4.773c0.158-2.046,25.76-4.921,18.143,3.906c10.319-1.291,0.854-8.581-3.627-9.987
		c4.658,2.078,10.872-8.13,15.24,0.867c4.725-4.226-12.895-6.53-15.674-5.254c-4.508,2.069-8.876-2.131-14.082-1.26
		c-1.919,1.045-3.854,2.059-5.805,3.04c-2.413-0.476-4.831-0.91-7.259-1.305c4.39-0.25,4.602-5.449,0-5.646
		c4.305-2.33,13.441-4.126,16.693,0.871c1.215-7.519-17.01-4.302-20.32-3.474c-0.439-4.931,4.113-1.765,6.529-1.738
		c-1.078-6.092-20.511,3.034-25.563,2.13c-1.802-0.323-7.013-1.232-7.263-3.79c-0.157-1.606,2.559-2.45,3.529-2.763
		c5.774-1.854,2.327,0.646,5.35,3.117c7.492-1.334,0.858-7.55-3.629-7.382c-1.431-6.707,8.001-2.615,10.887-1.737
		c-0.405,0.67-0.647,1.394-0.728,2.173c8.444-1.777-4.821-6.118-7.748-6.007c-1.759,0.066-15.78,3.646-14.023-0.943
		c1.936,0,3.871,0,5.807,0c-2.538-3.503-13.227-2.997-15.967,0c-7.094,0.701-14.236-1.415-19.047-6.408
		c-2.573-2.669-10.732-10.138-6.627-14.168c3.791-3.724,16.785-2.592,8.982,3.638c6.726,2.242,9.648-5.321,4.355-9.121
		c1.644,0.51,2.853,1.523,3.627,3.041c1.999-1.5,4.234-1.995,6.704-1.484c8.789,1.311,3.248,3.647,3.458,7.564
		c4.271,1.778,7.029-2.256,5.036-5.619c-3.529-5.955,3.876-3.553,6.575-4.805c-1.499-2.352-5.667-1.09-7.645-0.606
		c-3.271,0.802-7.315-2.469-11.223-3.301c2.99-0.833,19.814,1.959,20.319,5.211c7.112-3.77-13.732-5.628-13.789-5.646
		c1.687-0.368,3.38-0.368,5.081,0c-0.48-1.409-0.722-2.856-0.725-4.343c2.722,0.392,0.508,1.602,0.725,3.042
		c3.737-0.798,20.926,7.23,18.87,12.594c7.468,0.665-2.823-9.502-3.629-10.857c6.544-3.467,9.402,1.139,12.339,3.908
		c6.626-5.595-17.089-7.775-18.145-9.12c15.134,4.436-2.572-0.934,7.36-2.984c3.452-0.713,20.501-1.611,15.864,6.459
		c9.187,0.006-0.338-6.812-0.727-9.122c0.939,1.872,5.685,6.036,7.1,5.116c4.412-2.867,10.412,5.5,5.239,8.784
		c4.593,0.898,7.668-4.306,9.166-6.175c-1.052,0.415-1.444,1.169-1.183,2.266c2.613-0.675,16.468,1.64,10.887,6.949
		c2.936,1.151,4.077-1.685,4.354-3.91c-2.832-4.046-7.895-5.662-10.886-9.554c0.573-1.144,1.541-1.578,2.902-1.303
		c0.557-3.619-7.334-1.59-6.289-2.526c1.227-1.103,5.075-0.502,6.289,0.354c0.561-4.152-8.59-3.55-10.886-4.343
		c2.286-0.265,15.111,0.764,10.886,5.646c6.063,0.131,2.301-6.775-1.451-7.383c5.725-1.146,5.241,4.171,5.081,6.515
		c2.136,0.64,4.312,1.076,6.531,1.304c0.484,1.447,0.968,2.895,1.452,4.342c4.556-1.112,2.074-4.807,0.724-7.383
		c4.467-2.687,12.488-1.688,11.613,3.476c3.025,0.559,1.713-1.974,4.354-1.738c-1.771,1.973,3.512,2.466,2.903,4.778
		c-1.234,0.19-2.443,0.479-3.63,0.868c1.729,1.23,17.152-8.27,15.969,1.303c-3.916-5.856-11.921-1.528-9.462-0.202
		c5.947,3.208-6.091,3.616-7.23,3.677c-2.09,1.094,7.272,2.846,9.42,2.017c2.852-1.1,5.777-0.799,7.992,1.461
		c3.131,3.197-0.393,2.68-2.173,4.773c4.422,2.36,5.462-3.007,8.711-4.344c-0.662,6.734-11.887,7.461-16.694,7.385
		c2.928,5.451,26.929-5.213,18.869,4.342c1.294,1.988,4.663-0.561,6.532,0.436c4.562,4.207-1.373,3.825-2.902,6.08
		c5.473,1.843,9.168-4.961,14.514,0c-2.031,0.023-3.968-0.412-5.806-1.303c5.998,5.641-12.419,7.113-12.338,7.817
		c3.608,1.951,16.621-1.387,14.516,4.343c-1.455-0.24-2.905-0.24-4.354,0c-1.214,5.296,14.328-1.009,9.435-5.211
		c0.054-0.093,9.788,2.289,11.819,2.698c10.887,2.195-0.547,4.718-1.659,6.422c2.473,2.526,7.913,0.54,9.435-2.172
		c-1.658,2.16,7.42,11.077-3.629,9.989c3.646,2.42,8.062-0.183,11.62-1.302c6.775-2.129,6.643,0.933,6.524,5.213
		c10.562-0.332-0.17-7.779,2.033-10.908c4.912-6.978,17.713,3.203,11.756,4.391c4.001,2.946,6.837-6.179,7.058-5.87
		c0.23,0.886,0.056,1.685-0.526,2.397c4.061,0.333,9.687,5.963,2.903,7.818c3.789,2.28,7.304-3.33,11.612-2.606
		c-0.922,0.612-5.039,0.071-5.08,1.738c2.286,2.241,4.436-1.319,5.072,3.156c0.64,4.487-3.395,6.24-7.252,5.964
		c0.475,1.728,22.223-1.726,12.338,5.646c1.833,0.098,10.295-3.161,5.807-4.778c0.541,0.215,15.725,1.149,10.887,3.907
		c8.085-5.329-18.021-10.055-9.85-12.432c4.041-1.175,10.635,2.628,11.281,0.478c1.452-4.831,12.367-3.798,11.631,1.099
		c6.002-4.357-15.909-9.383-19.595-8.253c3.961-0.645,6.321-3.019,5.909-7.079c-0.705-6.914-4.371-1.709-7.402-5.457
		c-0.822-1.018,8.609,0.712,7.75,1.582c-0.881,0.289-1.273,0.899-1.175,1.833c1.391-0.094,9.01-4.056,4.353-5.646
		c5.203,2.764,17.612-4.634,18.87,4.777c7.383-8.063-19.43-5.71-18.143-10.856c2.732-0.366,5.394-0.076,7.981,0.869
		c1.266-6.985-22.63-1.949-25.399-2.172c-0.592-1.774-10.24-6.493-2.217-6.537c3.512-0.019,7.465,5.284,8.022-1.281
		c-0.944-0.464-1.91-0.464-2.904,0c2.179-1.988,12.573-2.064,12.896-1.033c-1.31-4.202-10.691-4.788-14.568-4.925
		c-6.286-0.223-12.999-1.385-19.371-3.598c-10.035,3.949-20.463,0.511-29.756,0.436c4.768-2.478,9.634-16.866,16.69-6.949
		c-1.062-8.177-20.665-6.811-26.127-6.949c-1.376-2.427,3.061-1.745,2.823-1.6c-1.071,0.071-1.529,0.604-1.372,1.6
		c1.886,0.286,3.502-0.194,4.852-1.439c2.335-2.641,2.937,0.046,6.762-0.298c0.751-1.559-2.749-2.897-2.464-4.601
		c0.67-3.994,8.064-0.179,9.721,0.691c2.731-4.577-18.282-7.939-20.321-7.817c-5.722-3.952-12.08-7.066-18.74-9.08
		c-4.717-1.427-9.614-2.285-14.547-2.387c-7.03-0.146-5.613-4.012-12.068-4.172c-8.201-0.202-16.146-1.975-24.311-2.801
		c-10.572-1.068-18.267,2.156-28.309,3.238c-19.381,2.087-36.464,1.737-55.37,8.126c-16.931,5.722-34.161,11.039-50.635,18.001
		c-7.411,3.132-14.132,7.12-21.187,10.92c-7.947,4.279-17.095,5.817-24.487,11.161C75.389,74.595,37.677,96.251,0,97.753
		c0-6.646,18.348-3.774,24.675-6.518c-4.84,0.112-9.678,0.329-14.519,0.434C1.306,91.862,0,93.258,0,84.29
		c9.393,2.715,20.578,0.945,30.113,0.035c7.604-0.726,21.913,0.373,27.946-5.248C50.9,81.153,0,86.292,0,76.47"/>
</g>
</svg>
